<?xml version="1.0" standalone="no"?>
<!DOCTYPE svg PUBLIC "-//W3C//DTD SVG 20010904//EN"
 "http://www.w3.org/TR/2001/REC-SVG-20010904/DTD/svg10.dtd">
<svg version="1.0" xmlns="http://www.w3.org/2000/svg"
 width="260.000000pt" height="260.000000pt" viewBox="0 0 260.000000 260.000000"
 preserveAspectRatio="xMidYMid meet">
<metadata>
Created by potrace 1.11, written by Peter Selinger 2001-2013
</metadata>
<g transform="translate(0.000000,260.000000) scale(0.100000,-0.100000)"
fill="#000000" stroke="none">
<path d="M458 2254 c-2 -1 -23 -4 -48 -5 -128 -9 -287 -112 -353 -229 -57
-102 -57 -97 -57 -797 0 -441 4 -658 11 -688 23 -93 124 -169 224 -169 96 0
201 76 225 162 7 27 11 233 13 587 2 528 3 547 21 561 11 8 26 14 34 14 8 0
69 -54 135 -119 573 -562 954 -930 1042 -1006 112 -96 224 -173 290 -198 62
-24 199 -25 264 -2 52 18 136 66 171 98 71 64 134 174 155 271 17 81 21 1283
4 1350 -6 25 -27 63 -46 86 -49 57 -101 81 -177 82 -103 2 -188 -57 -227 -157
-8 -21 -12 -183 -13 -566 -1 -581 0 -569 -56 -569 -34 0 -93 42 -194 139 -44
42 -98 94 -121 116 -23 22 -100 96 -172 165 -136 131 -494 476 -623 600 -177
170 -240 216 -338 249 -51 18 -156 34 -164 25z"/>
</g>
</svg>
